<?xml version="1.0" encoding="UTF-8" standalone="no"?>
<!-- Created with Inkscape (http://www.inkscape.org/) -->

<svg
   width="158.75mm"
   height="149.79401mm"
   viewBox="0 0 158.75 149.79401"
   version="1.1"
   id="svg1"
   xmlns="http://www.w3.org/2000/svg"
   xmlns:svg="http://www.w3.org/2000/svg">
  <defs
     id="defs1" />
  <g
     id="layer1"
     transform="translate(-27.703533,-55.282011)">
    <path
       d="m 69.500385,204.96608 c -0.2407,-0.10189 -0.57674,-0.45428 -0.74677,-0.78307 -0.27778,-0.53717 -0.30913,-8.04305 -0.30913,-74.00335 0,-47.258215 0.0691,-73.534665 0.19399,-73.768025 0.22576,-0.42184 1.55673,-1.25362 1.7826,-1.11402 0.0846,0.0523 1.98195,0.66961 4.2164,1.37188 2.23446,0.70226 7.60234,2.39822 11.92862,3.76879 4.32628,1.37058 14.721325,4.65029 23.100085,7.28826 l 15.2341,4.79631 9.50348,0.0545 9.50347,0.0545 0.45345,0.45355 0.45346,0.45355 0.0528,18.35201 c 0.0293,10.166515 -0.0241,18.428965 -0.1197,18.524565 -0.0973,0.0973 -0.55451,-0.0297 -1.04855,-0.29129 -0.48181,-0.25512 -1.34646,-0.66544 -1.92148,-0.91183 l -1.04545,-0.44798 V 93.052245 c 0,-14.01828 -0.0338,-15.74592 -0.31294,-16.02512 -0.27112,-0.27112 -1.14395,-0.31293 -6.53351,-0.31293 -4.66409,0 -6.30484,0.0623 -6.55735,0.24893 -0.31031,0.22936 -0.34068,1.42916 -0.38655,15.27137 l -0.0498,15.022445 -1.88932,0.54267 c -1.03912,0.29847 -1.95765,0.50044 -2.04117,0.44883 -0.0835,-0.0516 -0.15185,-7.2544 -0.15185,-16.006175 0,-15.39112 -0.0123,-15.91892 -0.3758,-16.11345 -0.20668,-0.11061 -2.06613,-0.73228 -4.13212,-1.38148 -2.06599,-0.6492 -7.78889,-2.45359 -12.71757,-4.00975 -4.92863,-1.55616 -9.633285,-3.03386 -10.454735,-3.28378 -0.82144,-0.24992 -3.50981,-1.09857 -5.97415,-1.88589 -11.99533,-3.83235 -15.97226,-4.99855 -16.25256,-4.76591 -0.23513,0.19514 -0.26902,10.61898 -0.22645,69.654435 l 0.0501,69.42497 0.43106,0.0614 c 0.37262,0.0531 8.77186,-2.52516 18.68625,-5.73596 4.12292,-1.33522 10.133345,-3.24704 21.009125,-6.68268 5.09297,-1.60885 9.41676,-3.00708 9.60843,-3.10717 0.32776,-0.17116 0.3485,-1.19395 0.3485,-17.18957 0,-9.35417 0.0672,-17.04507 0.14935,-17.09088 0.0821,-0.0458 1.00068,0.1526 2.04117,0.44088 l 1.89182,0.52418 0.051,16.10667 c 0.0364,11.49696 0.1146,16.18335 0.27331,16.37457 0.30588,0.36857 12.90979,0.39604 13.27689,0.029 0.18205,-0.18205 0.23897,-4.20361 0.23897,-16.88503 v -16.64613 l 1.97997,-0.91609 c 1.089,-0.50385 2.02992,-0.86615 2.09096,-0.80511 0.20353,0.20353 0.12194,37.82614 -0.0832,38.36572 -0.1068,0.28089 -0.48765,0.68965 -0.84634,0.90834 -0.62665,0.38207 -1.01053,0.39775 -9.81254,0.40064 l -9.16037,0.003 -1.89182,0.57318 c -1.0405,0.31524 -3.72887,1.15879 -5.97416,1.87455 -2.24529,0.71576 -7.66684,2.43421 -12.04788,3.81878 -4.38105,1.38456 -10.071435,3.19175 -12.645305,4.01598 -2.57387,0.82421 -5.62069,1.79564 -6.77072,2.15871 -1.15002,0.36307 -4.79269,1.51733 -8.09482,2.56502 -6.27974,1.99242 -7.25506,2.22756 -7.97519,1.9227 z m 62.094055,-25.36911 c -0.16344,-0.19694 -0.21091,-4.0731 -0.17374,-14.18862 l 0.0511,-13.91766 2.38967,-0.13015 c 1.31431,-0.0716 2.45687,-0.0887 2.53901,-0.0381 0.0821,0.0507 0.14936,6.29496 0.14936,13.8762 0,12.15336 -0.0367,13.83643 -0.31,14.22665 -0.28629,0.40875 -0.46716,0.44259 -2.36528,0.44259 -1.49047,0 -2.11709,-0.0745 -2.28017,-0.27097 z m 3.1632,-72.42133 c -0.49287,-0.0896 -1.4562,-0.16954 -2.14074,-0.17766 l -1.24462,-0.0148 -0.0148,-5.12782 c -0.008,-2.820296 -0.0306,-8.640245 -0.0498,-12.933215 -0.0276,-6.16896 0.0192,-7.85984 0.22353,-8.06511 0.16696,-0.16777 0.95371,-0.28375 2.22221,-0.32759 3.11766,-0.10777 2.80892,-1.65365 2.74815,13.760089 -0.0506,12.831816 -0.0562,12.992696 -0.44951,13.020656 -0.21905,0.0156 -0.80153,-0.045 -1.2944,-0.13459 z"
       style="fill:#6d2ce3;fill-opacity:1;stroke-width:0.149354"
       id="path1" />
    <path
       style="fill:#fd6b86;fill-opacity:1;stroke-width:0.149354"
       d="m 28.101813,162.96124 c -0.39405,-0.39404 -0.39828,-0.66379 -0.39828,-25.40326 0,-16.85575 0.0672,-25.13052 0.20615,-25.39017 0.19376,-0.36204 0.45732,-0.38519 4.3873,-0.38519 3.16584,0 4.20224,0.0605 4.26801,0.24893 0.0701,0.20092 0.24909,2.35221 0.28994,3.48492 0.0163,0.45247 0.39669,0.26214 1.9536,-0.97753 2.965179,-2.36102 5.899789,-3.35566 9.886189,-3.35079 2.60565,0.003 4.12368,0.27559 6.26511,1.12425 4.98254,1.97461 8.73137,6.67134 9.89035,12.39115 0.48179,2.37775 0.32152,7.47379 -0.30039,9.55139 -1.74682,5.8355 -5.42827,9.72524 -10.98515,11.60663 -1.61253,0.54595 -2.21882,0.64421 -4.48014,0.72603 -4.63705,0.1678 -7.88471,-0.96227 -10.996229,-3.82632 -1.459,-1.34295 -1.4235,-1.5942 -1.4235,10.07495 0,9.79264 -0.0121,10.11749 -0.38519,10.31715 -0.22584,0.12086 -1.91462,0.20614 -4.08234,0.20614 -3.43163,0 -3.72576,-0.0286 -4.09543,-0.39828 z m 20.973359,-24.79181 c 1.61396,-0.42038 2.63257,-0.98706 3.85874,-2.14672 1.99026,-1.8823 2.91633,-4.18087 2.90798,-7.21774 -0.019,-6.92252 -5.59014,-11.02208 -12.40641,-9.1294 -2.95351,0.8201 -5.682219,3.82937 -6.349609,7.00246 -0.4978,2.36676 -0.16676,5.15651 0.84997,7.16295 0.9446,1.86407 3.354169,3.6736 5.751459,4.31922 1.38654,0.37341 3.97268,0.37784 5.38787,0.009 z m 43.18535,8.33624 c -6.79899,-1.0488 -12.02988,-5.68759 -13.81973,-12.25543 -0.39037,-1.43247 -0.45112,-2.13101 -0.44722,-5.14256 0.004,-2.99181 0.0688,-3.72443 0.4589,-5.1776 0.93171,-3.4707 3.18339,-7.11063 5.65075,-9.1347 3.41544,-2.80179 8.2304,-4.15858 12.94128,-3.64667 6.929738,0.75302 11.882398,4.77376 13.716258,11.13532 0.72984,2.53178 0.91914,8.09248 0.30335,8.91101 -0.18814,0.25009 -1.94617,0.3051 -12.068958,0.37763 -6.51681,0.0467 -11.87115,0.0936 -11.89853,0.10436 -0.0274,0.0107 -0.0498,0.32105 -0.0498,0.68968 0,1.75788 2.34528,4.87079 4.42362,5.87156 3.9132,1.88426 8.888678,1.12114 12.464488,-1.91177 0.62323,-0.52861 1.25588,-0.89617 1.5425,-0.89617 0.79,0 5.06774,3.79814 5.06774,4.49958 0,0.61372 -2.41001,2.83345 -4.30829,3.96812 -2.09817,1.25414 -4.91318,2.23959 -7.491008,2.62236 -2.50129,0.37141 -4.00438,0.36799 -6.48537,-0.0147 z m 10.522158,-21.28589 c 0.20451,-0.24642 0.18656,-0.54445 -0.0956,-1.58673 -0.60919,-2.25054 -2.25751,-4.066 -4.429488,-4.87865 -4.5178,-1.69032 -9.32541,0.59128 -10.74671,5.10018 -0.56314,1.78647 -1.09084,1.66861 7.47083,1.66861 6.519378,0 7.583488,-0.0414 7.800948,-0.30341 z m 28.27379,21.47539 c -4.37783,-0.45287 -7.83257,-2.06658 -10.75349,-5.02294 -2.87988,-2.91482 -4.38508,-6.22433 -4.82302,-10.60446 -0.78045,-7.80579 2.34773,-14.44155 8.4197,-17.86058 2.43021,-1.36842 5.20099,-2.02198 8.57218,-2.02198 5.29062,0 9.2432,1.60588 12.47795,5.06961 2.32454,2.4891 3.65463,5.66925 4.02134,9.61474 0.22334,2.40301 0.035,4.89186 -0.40274,5.3224 -0.23826,0.23433 -2.27932,0.2973 -12.13519,0.37435 -6.51681,0.0509 -11.87114,0.10107 -11.89853,0.1114 -0.0274,0.0103 -0.0498,0.32037 -0.0498,0.689 0,1.06606 1.2459,3.31387 2.4878,4.4884 3.51633,3.32561 9.95021,3.18056 14.14989,-0.319 1.59581,-1.32977 1.83786,-1.3895 2.79445,-0.68958 1.76206,1.28928 4.26536,3.64564 4.26536,4.01499 0,0.92252 -2.68675,3.17644 -5.54803,4.65422 -3.41059,1.76151 -7.73991,2.57646 -11.57789,2.17943 z m 9.14034,-21.35453 c 0.39769,-0.2518 0.15615,-1.75259 -0.48603,-3.01987 -1.08353,-2.13826 -3.16405,-3.56082 -5.80759,-3.97098 -2.65088,-0.4113 -5.11057,0.35023 -6.89508,2.13474 -1.46244,1.46244 -2.75068,4.34654 -2.19132,4.9059 0.20106,0.20106 15.0598,0.15296 15.38002,-0.0498 z m 13.75058,20.78132 c -0.20818,-0.25084 -0.2547,-4.93272 -0.24123,-24.28137 0.009,-13.18383 0.0755,-24.155916 0.14738,-24.382406 0.1266,-0.39888 0.26038,-0.41181 4.25936,-0.41181 2.94567,0 4.19714,0.0685 4.36763,0.23897 0.18112,0.18112 0.23897,3.479086 0.23897,13.624696 0,7.36216 0.0544,13.52749 0.12088,13.70073 0.0665,0.17325 0.23779,0.315 0.38069,0.315 0.28169,0 3.05126,-2.94742 7.76268,-8.26116 1.6429,-1.85293 3.27118,-3.68698 3.61841,-4.07569 l 0.63132,-0.70673 4.54628,-0.10176 c 5.12934,-0.11482 5.90458,-0.0552 6.0042,0.4621 0.0451,0.23435 -0.90032,1.37935 -2.79286,3.38233 -3.0157,3.19168 -7.97319,8.49807 -9.5679,10.24125 -0.52025,0.56869 -0.9459,1.16084 -0.9459,1.31589 0,0.15505 1.54963,2.28719 3.44363,4.73808 1.89401,2.45089 5.03866,6.54441 6.98813,9.09671 l 3.54448,4.64055 -0.44701,0.3877 c -0.41593,0.36072 -0.77584,0.38769 -5.17382,0.38769 -4.21862,0 -4.76923,-0.0375 -5.12143,-0.34849 -0.21704,-0.19167 -1.67752,-2.05113 -3.24549,-4.13213 -4.83198,-6.41291 -6.1697,-8.06511 -6.53004,-8.06511 -0.33565,0 -1.93507,1.53036 -2.78572,2.66544 -0.41105,0.5485 -0.43053,0.77418 -0.43053,4.98843 0,3.16754 -0.0675,4.48141 -0.23897,4.6529 -0.17007,0.17007 -1.3974,0.23896 -4.25709,0.23896 -3.39804,0 -4.05794,-0.048 -4.27605,-0.31077 z"
       id="path28" />
  </g>
</svg>
